<svg width="48" height="47" viewBox="0 0 48 47" fill="none" xmlns="http://www.w3.org/2000/svg"><path d="M23.2572 6.92583L24 7.74999L24.7428 6.92583L26.5789 4.88865C31.2521 -0.29622 38.7813 -0.296212 43.4545 4.88865C48.1818 10.1337 48.1819 18.6764 43.4545 23.9215L24 45.5063L4.54554 23.9215C-0.181839 18.6764 -0.181852 10.1337 4.54554 4.88865C9.21866 -0.296218 16.748 -0.296205 21.4211 4.88865L23.2572 6.92583ZM23.2572 44.5287L24 45.3528L24.7428 44.5287L43.5247 23.6901C48.1562 18.5514 48.1562 10.2587 43.5247 5.12006C38.8389 -0.0788188 31.1945 -0.0788257 26.5087 5.12006L24 7.9035L21.4913 5.12006C16.8055 -0.0788113 9.16109 -0.0788264 4.47532 5.12006C-0.156182 10.2588 -0.15617 18.5514 4.47532 23.6901L23.2572 44.5287Z" stroke="black" stroke-width="2" /></svg>