<?xml version="1.0" standalone="no"?>
<!DOCTYPE svg PUBLIC "-//W3C//DTD SVG 20010904//EN"
 "http://www.w3.org/TR/2001/REC-SVG-20010904/DTD/svg10.dtd">
<svg version="1.0" xmlns="http://www.w3.org/2000/svg"
 width="700.000000pt" height="700.000000pt" viewBox="0 0 700.000000 700.000000"
 preserveAspectRatio="xMidYMid meet">
<metadata>
Created by potrace 1.14, written by Peter Selinger 2001-2017
</metadata>
<g transform="translate(0.000000,700.000000) scale(0.100000,-0.100000)"
fill="#000000" stroke="none">
<path d="M3298 6996 c-1 -2 -42 -6 -89 -9 -106 -8 -221 -24 -349 -48 -30 -6
-68 -13 -85 -15 -136 -22 -460 -125 -632 -200 -17 -8 -34 -14 -38 -14 -13 0
-309 -152 -384 -198 -74 -44 -206 -129 -226 -144 -5 -5 -58 -44 -116 -88 -626
-470 -1092 -1182 -1279 -1950 -22 -90 -56 -278 -65 -355 -4 -33 -9 -69 -11
-79 -25 -136 -25 -645 0 -796 2 -14 7 -47 10 -75 10 -79 25 -161 52 -291 61
-295 220 -703 387 -989 172 -296 441 -627 691 -850 14 -13 137 -117 153 -130
450 -363 1072 -638 1628 -719 23 -4 50 -8 60 -10 212 -40 752 -41 980 -1 17 3
50 8 75 11 86 11 276 54 395 89 66 19 127 37 135 39 150 42 510 205 690 313
178 108 414 278 530 383 87 79 259 251 313 315 33 39 63 72 66 75 5 4 54 65
83 105 4 6 18 24 31 40 79 101 220 325 296 470 138 261 271 634 327 909 53
264 71 466 68 761 -1 138 -5 261 -7 275 -3 14 -8 56 -12 94 -7 72 -13 111 -20
136 -2 8 -7 36 -10 63 -9 61 -57 269 -88 377 -143 491 -416 978 -763 1359 -84
92 -258 260 -334 322 -36 30 -67 56 -70 60 -3 3 -48 37 -100 76 -364 268 -763
460 -1200 577 -170 46 -282 66 -560 101 -48 7 -526 16 -532 11z m469 -2145
c215 -44 368 -113 574 -260 58 -41 213 -200 266 -271 114 -156 209 -368 239
-534 3 -16 7 -32 9 -35 16 -27 25 -309 12 -411 -23 -188 -80 -361 -168 -514
-71 -125 -119 -188 -223 -291 -142 -141 -197 -181 -351 -259 -144 -73 -199
-93 -360 -127 -103 -22 -337 -31 -435 -17 -219 32 -418 105 -585 216 -123 82
-193 145 -313 281 -81 92 -197 303 -241 441 -90 277 -89 597 5 870 31 91 124
286 154 323 5 6 36 46 68 87 151 193 381 363 587 435 28 9 59 21 70 26 35 15
144 40 234 53 122 18 333 12 458 -13z"/>
</g>
</svg>
